<?xml version="1.0" encoding="UTF-8" standalone="no"?>
<svg
   width="80.453094"
   height="80.452904"
   viewBox="0 0 80.453094 80.452904"
   fill="none"
   version="1.1"
   id="svg15"
   xmlns="http://www.w3.org/2000/svg"
   xmlns:svg="http://www.w3.org/2000/svg">
  <defs
     id="defs15" />
  <path
     d="m 42.908399,42.908201 c 20.735397,0 37.544697,0 37.544697,0 0,20.7353 -16.8093,37.5447 -37.544697,37.5447 0,0 0,-21.4541 0,-37.5447 z"
     fill="#ef898b"
     id="path12" />
  <path
     d="m 80.452896,37.544701 c -20.7354,0 -37.544697,0 -37.544697,0 C 42.908199,16.809301 59.717496,0 80.452896,0 c 0,0 0,21.454101 0,37.544701 z"
     fill="#ef898b"
     id="path13" />
  <path
     d="m 37.544699,42.908201 c 0,20.7353 0,37.5447 0,37.5447 -20.7354,0 -37.54469999999995,-16.8094 -37.544699,-37.5447 0,0 21.454099,0 37.544699,0 z"
     fill="#ef898b"
     id="path14" />
  <path
     d="M 2.25e-4,37.544701 C 2.24e-4,16.809301 2.24e-4,0 2.24e-4,0 c 20.735375,0 37.544675,16.809301 37.544675,37.544701 0,0 -21.4541,0 -37.544674,0 z"
     fill="#ef898b"
     id="path15" />
</svg>
